<svg xmlns="http://www.w3.org/2000/svg" viewBox="0 0 100 100">
  <!-- Bottom post-it note (back layer, darkest) -->
  <rect x="10" y="10" width="70" height="70" rx="2" fill="#FFC107" stroke="#FFB300" stroke-width="0.5" opacity="0.85"/>
  <path d="M 73 10 L 80 10 L 80 17 L 73 10 Z" fill="#FFB300" opacity="0.6"/>
  
  <!-- Middle post-it note -->
  <rect x="13" y="13" width="70" height="70" rx="2" fill="#FFD54F" stroke="#FFC107" stroke-width="0.5" opacity="0.9"/>
  <path d="M 76 13 L 83 13 L 83 20 L 76 13 Z" fill="#FFC107" opacity="0.7"/>
  <path d="M 76 13 L 83 13 L 83 20 L 76 13 Z" fill="#FFB300" opacity="0.3"/>
  
  <!-- Top post-it note (front layer, brightest) - centered -->
  <rect x="15" y="15" width="70" height="70" rx="2" fill="#FFEB3B" stroke="#FFD700" stroke-width="0.5"/>
  <path d="M 78 15 L 85 15 L 85 22 L 78 15 Z" fill="#FFD54F" opacity="0.9"/>
  <path d="M 78 15 L 85 15 L 85 22 L 78 15 Z" fill="#FFC107" opacity="0.4"/>
  
  <!-- Subtle lines on top note -->
  <line x1="20" y1="29" x2="74" y2="29" stroke="#FFC107" stroke-width="0.4" opacity="0.25"/>
  <line x1="20" y1="39" x2="74" y2="39" stroke="#FFC107" stroke-width="0.4" opacity="0.2"/>
</svg>

